<mxfile host="www.draw.io" modified="2020-02-28T04:16:15.736Z" agent="Mozilla/5.0 (Macintosh; Intel Mac OS X 10_15_3) AppleWebKit/605.1.15 (KHTML, like Gecko) Version/13.0.5 Safari/605.1.15" etag="Dfe1LoL46RWQcveJT5Eg" version="12.7.9" type="github">
  <diagram name="Page-1" id="c4acf3e9-155e-7222-9cf6-157b1a14988f">
    <mxGraphModel dx="945" dy="566" grid="1" gridSize="10" guides="1" tooltips="1" connect="1" arrows="1" fold="1" page="1" pageScale="1" pageWidth="850" pageHeight="1100" background="#ffffff" math="0" shadow="0">
      <root>
        <mxCell id="0" />
        <mxCell id="1" parent="0" />
        <mxCell id="p6NHeroqPzgnWThW8GJD-8" value="Monitor" style="shape=module;align=left;spacingLeft=20;align=center;verticalAlign=top;" parent="1" vertex="1">
          <mxGeometry x="75" y="290" width="720" height="350" as="geometry" />
        </mxCell>
        <mxCell id="17acba5748e5396b-1" value="大文件监控和清理" style="shape=umlFrame;whiteSpace=wrap;html=1;rounded=0;shadow=0;comic=0;labelBackgroundColor=none;strokeWidth=1;fontFamily=Verdana;fontSize=10;align=center;" parent="1" vertex="1">
          <mxGeometry x="15" y="230" width="820" height="670" as="geometry" />
        </mxCell>
        <mxCell id="p6NHeroqPzgnWThW8GJD-6" style="edgeStyle=orthogonalEdgeStyle;rounded=0;orthogonalLoop=1;jettySize=auto;html=1;entryX=-0.007;entryY=0.341;entryDx=0;entryDy=0;entryPerimeter=0;" parent="1" source="5d2195bd80daf111-18" target="p6NHeroqPzgnWThW8GJD-3" edge="1">
          <mxGeometry relative="1" as="geometry" />
        </mxCell>
        <mxCell id="5d2195bd80daf111-18" value="&lt;p style=&quot;margin: 0px ; margin-top: 4px ; text-align: center&quot;&gt;&lt;i&gt;&amp;lt;&amp;lt;Interface&amp;gt;&amp;gt;&lt;/i&gt;&lt;br&gt;&lt;b&gt;IFileMonitor&lt;/b&gt;&lt;/p&gt;&lt;hr size=&quot;1&quot;&gt;&lt;p style=&quot;margin: 0px ; margin-left: 4px&quot;&gt;+ reportFilesSize(JSONObject data): void&lt;br&gt;&lt;/p&gt;" style="verticalAlign=top;align=left;overflow=fill;fontSize=12;fontFamily=Helvetica;html=1;rounded=0;shadow=0;comic=0;labelBackgroundColor=none;strokeWidth=1" parent="1" vertex="1">
          <mxGeometry x="110" y="530" width="230" height="70" as="geometry" />
        </mxCell>
        <mxCell id="p6NHeroqPzgnWThW8GJD-7" style="edgeStyle=orthogonalEdgeStyle;rounded=0;orthogonalLoop=1;jettySize=auto;html=1;exitX=0.5;exitY=0;exitDx=0;exitDy=0;entryX=1;entryY=0.5;entryDx=0;entryDy=0;" parent="1" source="p6NHeroqPzgnWThW8GJD-1" target="p6NHeroqPzgnWThW8GJD-3" edge="1">
          <mxGeometry relative="1" as="geometry">
            <Array as="points">
              <mxPoint x="615" y="398" />
            </Array>
          </mxGeometry>
        </mxCell>
        <mxCell id="p6NHeroqPzgnWThW8GJD-1" value="&lt;p style=&quot;margin: 0px ; margin-top: 4px ; text-align: center&quot;&gt;&lt;i&gt;&amp;lt;&amp;lt;Interface&amp;gt;&amp;gt;&lt;/i&gt;&lt;br&gt;&lt;b&gt;IFileClear&lt;/b&gt;&lt;/p&gt;&lt;hr size=&quot;1&quot;&gt;&lt;p style=&quot;margin: 0px ; margin-left: 4px&quot;&gt;+ cleanBigFiles(JSONObject&amp;nbsp;command): boolean&lt;br&gt;&lt;/p&gt;" style="verticalAlign=top;align=left;overflow=fill;fontSize=12;fontFamily=Helvetica;html=1;rounded=0;shadow=0;comic=0;labelBackgroundColor=none;strokeWidth=1" parent="1" vertex="1">
          <mxGeometry x="480" y="530" width="270" height="70" as="geometry" />
        </mxCell>
        <mxCell id="p6NHeroqPzgnWThW8GJD-2" value="FileMCManager" style="swimlane;fontStyle=1;align=center;verticalAlign=top;childLayout=stackLayout;horizontal=1;startSize=26;horizontalStack=0;resizeParent=1;resizeParentMax=0;resizeLast=0;collapsible=1;marginBottom=0;" parent="1" vertex="1">
          <mxGeometry x="260" y="350" width="320" height="150" as="geometry" />
        </mxCell>
        <object label="- fileMonitor: IFileMonitor&#xa;- fileClear: IFileClear" id="p6NHeroqPzgnWThW8GJD-3">
          <mxCell style="text;strokeColor=none;fillColor=none;align=left;verticalAlign=top;spacingLeft=4;spacingRight=4;overflow=hidden;rotatable=0;points=[[0,0.5],[1,0.5]];portConstraint=eastwest;" parent="p6NHeroqPzgnWThW8GJD-2" vertex="1">
            <mxGeometry y="26" width="320" height="44" as="geometry" />
          </mxCell>
        </object>
        <mxCell id="p6NHeroqPzgnWThW8GJD-4" value="" style="line;strokeWidth=1;fillColor=none;align=left;verticalAlign=middle;spacingTop=-1;spacingLeft=3;spacingRight=3;rotatable=0;labelPosition=right;points=[];portConstraint=eastwest;" parent="p6NHeroqPzgnWThW8GJD-2" vertex="1">
          <mxGeometry y="70" width="320" height="8" as="geometry" />
        </mxCell>
        <mxCell id="p6NHeroqPzgnWThW8GJD-5" value="+ setFileMonitor(IFileMonitor fileMonitor): FileMCManager&#xa;+ setFileClear(IFileClear fileClear): FileMCManager&#xa;+ reportFilesSize(JsonObject obj): void&#xa;+ cleanBigFiles(String[] fileList): boolean" style="text;strokeColor=none;fillColor=none;align=left;verticalAlign=top;spacingLeft=4;spacingRight=4;overflow=hidden;rotatable=0;points=[[0,0.5],[1,0.5]];portConstraint=eastwest;" parent="p6NHeroqPzgnWThW8GJD-2" vertex="1">
          <mxGeometry y="78" width="320" height="72" as="geometry" />
        </mxCell>
        <mxCell id="p6NHeroqPzgnWThW8GJD-19" value="App" style="shape=module;align=left;spacingLeft=20;align=center;verticalAlign=top;" parent="1" vertex="1">
          <mxGeometry x="70" y="670" width="729" height="180" as="geometry" />
        </mxCell>
        <mxCell id="p6NHeroqPzgnWThW8GJD-20" value="&lt;p style=&quot;margin: 0px ; margin-top: 4px ; text-align: center&quot;&gt;&lt;b&gt;FileMonitor&lt;/b&gt;&lt;/p&gt;&lt;hr size=&quot;1&quot;&gt;&lt;p style=&quot;margin: 0px ; margin-left: 4px&quot;&gt;&lt;/p&gt;&amp;nbsp;+ reportFilesSize(JsonObject data): void" style="verticalAlign=top;align=left;overflow=fill;fontSize=12;fontFamily=Helvetica;html=1;" parent="1" vertex="1">
          <mxGeometry x="150" y="750" width="225" height="60" as="geometry" />
        </mxCell>
        <mxCell id="p6NHeroqPzgnWThW8GJD-21" value="&lt;p style=&quot;margin: 0px ; margin-top: 4px ; text-align: center&quot;&gt;&lt;b&gt;FileClear&lt;/b&gt;&lt;br&gt;&lt;/p&gt;&lt;hr size=&quot;1&quot;&gt;&lt;p style=&quot;margin: 0px ; margin-left: 4px&quot;&gt;&lt;/p&gt;&amp;nbsp;cleanBigFiles(JSONObject&amp;nbsp;command): boolean" style="verticalAlign=top;align=left;overflow=fill;fontSize=12;fontFamily=Helvetica;html=1;" parent="1" vertex="1">
          <mxGeometry x="462.5" y="750" width="260" height="60" as="geometry" />
        </mxCell>
        <mxCell id="p6NHeroqPzgnWThW8GJD-22" value="" style="endArrow=block;endSize=16;endFill=0;html=1;exitX=0.5;exitY=0;exitDx=0;exitDy=0;" parent="1" source="p6NHeroqPzgnWThW8GJD-20" target="5d2195bd80daf111-18" edge="1">
          <mxGeometry width="160" relative="1" as="geometry">
            <mxPoint x="262.5" y="590" as="sourcePoint" />
            <mxPoint x="262.5" y="590" as="targetPoint" />
          </mxGeometry>
        </mxCell>
        <mxCell id="p6NHeroqPzgnWThW8GJD-23" value="" style="endArrow=block;endSize=16;endFill=0;html=1;entryX=0.5;entryY=1;entryDx=0;entryDy=0;exitX=0.5;exitY=0;exitDx=0;exitDy=0;" parent="1" source="p6NHeroqPzgnWThW8GJD-21" target="p6NHeroqPzgnWThW8GJD-1" edge="1">
          <mxGeometry width="160" relative="1" as="geometry">
            <mxPoint x="570" y="730" as="sourcePoint" />
            <mxPoint x="730" y="730" as="targetPoint" />
          </mxGeometry>
        </mxCell>
      </root>
    </mxGraphModel>
  </diagram>
</mxfile>
